<svg xmlns="http://www.w3.org/2000/svg" xmlns:xlink="http://www.w3.org/1999/xlink" contentStyleType="text/css" data-diagram-type="CLASS" height="1033px" preserveAspectRatio="none" style="width:2865px;height:1033px;background:#FFFFFF;" version="1.1" viewBox="0 0 2865 1033" width="2865px" zoomAndPan="magnify"><defs/><g><!--class ControladorPersistencia--><g class="entity" data-entity="ControladorPersistencia" data-source-line="1" data-uid="ent0002" id="entity_ControladorPersistencia"><rect fill="#F1F1F1" height="683.5781" rx="2.5" ry="2.5" style="stroke:#181818;stroke-width:0.5;" width="719.9639" x="1108.35" y="7"/><ellipse cx="1380.516" cy="23" fill="#ADD1B2" rx="11" ry="11" style="stroke:#181818;stroke-width:1;"/><path d="M1383.4848,28.6406 Q1382.9066,28.9375 1382.266,29.0781 Q1381.6254,29.2344 1380.9223,29.2344 Q1378.4223,29.2344 1377.0941,27.5938 Q1375.7816,25.9375 1375.7816,22.8125 Q1375.7816,19.6875 1377.0941,18.0313 Q1378.4223,16.375 1380.9223,16.375 Q1381.6254,16.375 1382.266,16.5313 Q1382.9223,16.6875 1383.4848,16.9844 L1383.4848,19.7031 Q1382.8598,19.125 1382.266,18.8594 Q1381.6723,18.5781 1381.0473,18.5781 Q1379.7035,18.5781 1379.016,19.6563 Q1378.3285,20.7188 1378.3285,22.8125 Q1378.3285,24.9063 1379.016,25.9844 Q1379.7035,27.0469 1381.0473,27.0469 Q1381.6723,27.0469 1382.266,26.7813 Q1382.8598,26.5 1383.4848,25.9219 L1383.4848,28.6406 Z " fill="#000000"/><text fill="#000000" font-family="sans-serif" font-size="14" lengthAdjust="spacing" textLength="167.1318" x="1401.016" y="27.8467">ControladorPersistencia</text><line style="stroke:#181818;stroke-width:0.5;" x1="1109.35" x2="1827.3139" y1="39" y2="39"/><rect fill="none" height="6" style="stroke:#C82930;stroke-width:1;" width="6" x="1116.35" y="49.6484"/><text fill="#000000" font-family="sans-serif" font-size="14" lengthAdjust="spacing" textLength="148.3672" x="1128.35" y="55.9951">static final String DIR</text><rect fill="none" height="6" style="stroke:#C82930;stroke-width:1;" width="6" x="1116.35" y="65.9453"/><text fill="#000000" font-family="sans-serif" font-size="14" lengthAdjust="spacing" textLength="319.792" x="1128.35" y="72.292">static final ControladorPersistencia INSTANCE</text><rect fill="none" height="6" style="stroke:#C82930;stroke-width:1;" width="6" x="1116.35" y="82.2422"/><text fill="#000000" font-family="sans-serif" font-size="14" lengthAdjust="spacing" textLength="236.0518" x="1128.35" y="88.5889">static final String RANQUING_FILE</text><rect fill="none" height="6" style="stroke:#C82930;stroke-width:1;" width="6" x="1116.35" y="98.5391"/><text fill="#000000" font-family="sans-serif" font-size="14" lengthAdjust="spacing" textLength="234.8555" x="1128.35" y="104.8857">GestorDiccionari gestorDiccionari</text><rect fill="none" height="6" style="stroke:#C82930;stroke-width:1;" width="6" x="1116.35" y="114.8359"/><text fill="#000000" font-family="sans-serif" font-size="14" lengthAdjust="spacing" textLength="194.8652" x="1128.35" y="121.1826">GestorPartida gestorPartida</text><rect fill="none" height="6" style="stroke:#C82930;stroke-width:1;" width="6" x="1116.35" y="131.1328"/><text fill="#000000" font-family="sans-serif" font-size="14" lengthAdjust="spacing" textLength="184.8984" x="1128.35" y="137.4795">GestorUsuari gestorUsuari</text><rect fill="none" height="6" style="stroke:#C82930;stroke-width:1;" width="6" x="1116.35" y="147.4297"/><text fill="#000000" font-family="sans-serif" font-size="14" lengthAdjust="spacing" textLength="415.4473" x="1128.35" y="153.7764">GestorRanquingEstadistiques gestorRanquingEstadistiques</text><rect fill="none" height="6" style="stroke:#C82930;stroke-width:1;" width="6" x="1116.35" y="163.7266"/><text fill="#000000" font-family="sans-serif" font-size="14" lengthAdjust="spacing" textLength="211.3809" x="1128.35" y="170.0732">GestorHistorial gestorHistorial</text><line style="stroke:#181818;stroke-width:0.5;" x1="1109.35" x2="1827.3139" y1="177.375" y2="177.375"/><ellipse cx="1119.35" cy="191.0234" fill="#84BE84" rx="3" ry="3" style="stroke:#038048;stroke-width:1;"/><text fill="#000000" font-family="sans-serif" font-size="14" lengthAdjust="spacing" textLength="178.0557" x="1128.35" y="194.3701">ControladorPersistencia()</text><ellipse cx="1119.35" cy="207.3203" fill="#84BE84" rx="3" ry="3" style="stroke:#038048;stroke-width:1;"/><text fill="#000000" font-family="sans-serif" font-size="14" lengthAdjust="spacing" textLength="484.2305" x="1128.35" y="210.667">static ControladorPersistencia getInstance(): ControladorPersistencia</text><text fill="#000000" font-family="sans-serif" font-size="14" lengthAdjust="spacing" textLength="4.4502" x="1128.35" y="226.9639">&#160;</text><ellipse cx="1119.35" cy="239.9141" fill="#84BE84" rx="3" ry="3" style="stroke:#038048;stroke-width:1;"/><text fill="#000000" font-family="sans-serif" font-size="14" lengthAdjust="spacing" textLength="413.0205" x="1128.35" y="243.2607">Map&lt;String, String&gt; carregarUsuaris() throws IOException</text><ellipse cx="1119.35" cy="256.2109" fill="#84BE84" rx="3" ry="3" style="stroke:#038048;stroke-width:1;"/><text fill="#000000" font-family="sans-serif" font-size="14" lengthAdjust="spacing" textLength="493.3496" x="1128.35" y="259.5576">void guardarUsuaris(Map&lt;String, String&gt; usuaris) throws IOException</text><ellipse cx="1119.35" cy="272.5078" fill="#84BE84" rx="3" ry="3" style="stroke:#038048;stroke-width:1;"/><text fill="#000000" font-family="sans-serif" font-size="14" lengthAdjust="spacing" textLength="406.793" x="1128.35" y="275.8545">boolean canviarNomUsuari(Usuari usuari, String nouNom)</text><ellipse cx="1119.35" cy="288.8047" fill="#84BE84" rx="3" ry="3" style="stroke:#038048;stroke-width:1;"/><text fill="#000000" font-family="sans-serif" font-size="14" lengthAdjust="spacing" textLength="482.1592" x="1128.35" y="292.1514">boolean canviarContrasenya(Usuari usuari, String novaContrasenya)</text><ellipse cx="1119.35" cy="305.1016" fill="#84BE84" rx="3" ry="3" style="stroke:#038048;stroke-width:1;"/><text fill="#000000" font-family="sans-serif" font-size="14" lengthAdjust="spacing" textLength="328.1934" x="1128.35" y="308.4482">void eliminarUsuariDeFitxer(String nomUsuari)</text><text fill="#000000" font-family="sans-serif" font-size="14" lengthAdjust="spacing" textLength="4.4502" x="1128.35" y="324.7451">&#160;</text><ellipse cx="1119.35" cy="337.6953" fill="#84BE84" rx="3" ry="3" style="stroke:#038048;stroke-width:1;"/><text fill="#000000" font-family="sans-serif" font-size="14" lengthAdjust="spacing" textLength="521.876" x="1128.35" y="341.042">List&lt;String&gt; carregarDiccionari(String nomDiccionari) throws IOException</text><ellipse cx="1119.35" cy="353.9922" fill="#84BE84" rx="3" ry="3" style="stroke:#038048;stroke-width:1;"/><text fill="#000000" font-family="sans-serif" font-size="14" lengthAdjust="spacing" textLength="628.4004" x="1128.35" y="357.3389">Map&lt;String, Pair&lt;Integer, Integer&gt;&gt; carregarAlfabet(String filepath) throws IOException</text><ellipse cx="1119.35" cy="370.2891" fill="#84BE84" rx="3" ry="3" style="stroke:#038048;stroke-width:1;"/><text fill="#000000" font-family="sans-serif" font-size="14" lengthAdjust="spacing" textLength="551.4004" x="1128.35" y="373.6357">void guardarDiccionari(String nom, List&lt;String&gt; paraules) throws IOException</text><ellipse cx="1119.35" cy="386.5859" fill="#84BE84" rx="3" ry="3" style="stroke:#038048;stroke-width:1;"/><text fill="#000000" font-family="sans-serif" font-size="14" lengthAdjust="spacing" textLength="693.9639" x="1128.35" y="389.9326">void guardarAlfabet(String nom, Map&lt;String, Pair&lt;Integer, Integer&gt;&gt; alfabet) throws IOException</text><ellipse cx="1119.35" cy="402.8828" fill="#84BE84" rx="3" ry="3" style="stroke:#038048;stroke-width:1;"/><text fill="#000000" font-family="sans-serif" font-size="14" lengthAdjust="spacing" textLength="233.9189" x="1128.35" y="406.2295">List&lt;String&gt; getNomesAlfabets()</text><ellipse cx="1119.35" cy="419.1797" fill="#84BE84" rx="3" ry="3" style="stroke:#038048;stroke-width:1;"/><text fill="#000000" font-family="sans-serif" font-size="14" lengthAdjust="spacing" textLength="483.0137" x="1128.35" y="422.5264">Map&lt;String, Pair&lt;Integer, Integer&gt;&gt; importarAlfabet(String idioma)</text><ellipse cx="1119.35" cy="435.4766" fill="#84BE84" rx="3" ry="3" style="stroke:#038048;stroke-width:1;"/><text fill="#000000" font-family="sans-serif" font-size="14" lengthAdjust="spacing" textLength="388.9717" x="1128.35" y="438.8232">List&lt;String&gt; importarParaulesDiccionari(String idioma)</text><ellipse cx="1119.35" cy="451.7734" fill="#84BE84" rx="3" ry="3" style="stroke:#038048;stroke-width:1;"/><text fill="#000000" font-family="sans-serif" font-size="14" lengthAdjust="spacing" textLength="444.1445" x="1128.35" y="455.1201">void eliminarDiccionari(String nomDiccionari) throws Exception</text><ellipse cx="1119.35" cy="468.0703" fill="#84BE84" rx="3" ry="3" style="stroke:#038048;stroke-width:1;"/><text fill="#000000" font-family="sans-serif" font-size="14" lengthAdjust="spacing" textLength="237.665" x="1128.35" y="471.417">List&lt;String&gt; getNomDiccionaris()</text><text fill="#000000" font-family="sans-serif" font-size="14" lengthAdjust="spacing" textLength="4.4502" x="1128.35" y="487.7139">&#160;</text><ellipse cx="1119.35" cy="500.6641" fill="#84BE84" rx="3" ry="3" style="stroke:#038048;stroke-width:1;"/><text fill="#000000" font-family="sans-serif" font-size="14" lengthAdjust="spacing" textLength="488.3115" x="1128.35" y="504.0107">void savePartida(Partida partida, String filename) throws IOException</text><ellipse cx="1119.35" cy="516.9609" fill="#84BE84" rx="3" ry="3" style="stroke:#038048;stroke-width:1;"/><text fill="#000000" font-family="sans-serif" font-size="14" lengthAdjust="spacing" textLength="576.6729" x="1128.35" y="520.3076">Partida loadPartida(String fileName) throws IOException, ClassNotFoundException</text><ellipse cx="1119.35" cy="533.2578" fill="#84BE84" rx="3" ry="3" style="stroke:#038048;stroke-width:1;"/><text fill="#000000" font-family="sans-serif" font-size="14" lengthAdjust="spacing" textLength="323.2236" x="1128.35" y="536.6045">List&lt;String&gt; listPartides() throws IOException</text><ellipse cx="1119.35" cy="549.5547" fill="#84BE84" rx="3" ry="3" style="stroke:#038048;stroke-width:1;"/><text fill="#000000" font-family="sans-serif" font-size="14" lengthAdjust="spacing" textLength="414.5518" x="1128.35" y="552.9014">boolean deletePartida(String fileName) throws IOException</text><text fill="#000000" font-family="sans-serif" font-size="14" lengthAdjust="spacing" textLength="4.4502" x="1128.35" y="569.1982">&#160;</text><ellipse cx="1119.35" cy="582.1484" fill="#84BE84" rx="3" ry="3" style="stroke:#038048;stroke-width:1;"/><text fill="#000000" font-family="sans-serif" font-size="14" lengthAdjust="spacing" textLength="314.2139" x="1128.35" y="585.4951">void guardarEntradaHistorial(String entrada)</text><ellipse cx="1119.35" cy="598.4453" fill="#84BE84" rx="3" ry="3" style="stroke:#038048;stroke-width:1;"/><text fill="#000000" font-family="sans-serif" font-size="14" lengthAdjust="spacing" textLength="222.5918" x="1128.35" y="601.792">List&lt;String&gt; carregarHistorial()</text><text fill="#000000" font-family="sans-serif" font-size="14" lengthAdjust="spacing" textLength="4.4502" x="1128.35" y="618.0889">&#160;</text><ellipse cx="1119.35" cy="631.0391" fill="#84BE84" rx="3" ry="3" style="stroke:#038048;stroke-width:1;"/><text fill="#000000" font-family="sans-serif" font-size="14" lengthAdjust="spacing" textLength="362.0381" x="1128.35" y="634.3857">void eliminarEstadistiquesUsuari(String nomUsuari)</text><ellipse cx="1119.35" cy="647.3359" fill="#84BE84" rx="3" ry="3" style="stroke:#038048;stroke-width:1;"/><text fill="#000000" font-family="sans-serif" font-size="14" lengthAdjust="spacing" textLength="387.0986" x="1128.35" y="650.6826">void eliminarFitxerRanquingUsuari(Ranquing ranquing)</text><ellipse cx="1119.35" cy="663.6328" fill="#84BE84" rx="3" ry="3" style="stroke:#038048;stroke-width:1;"/><text fill="#000000" font-family="sans-serif" font-size="14" lengthAdjust="spacing" textLength="294.8066" x="1128.35" y="666.9795">void guardaRanquing(Ranquing ranquing)</text><ellipse cx="1119.35" cy="679.9297" fill="#84BE84" rx="3" ry="3" style="stroke:#038048;stroke-width:1;"/><text fill="#000000" font-family="sans-serif" font-size="14" lengthAdjust="spacing" textLength="202.4189" x="1128.35" y="683.2764">Ranquing carregaRanquing()</text></g><!--class GestorRanquingEstadistiques--><g class="entity" data-entity="GestorRanquingEstadistiques" data-source-line="50" data-uid="ent0003" id="entity_GestorRanquingEstadistiques"><rect fill="#F1F1F1" height="145.7813" rx="2.5" ry="2.5" style="stroke:#181818;stroke-width:0.5;" width="528.6602" x="7" y="815.76"/><ellipse cx="163.8403" cy="831.76" fill="#ADD1B2" rx="11" ry="11" style="stroke:#181818;stroke-width:1;"/><path d="M166.8091,837.4006 Q166.231,837.6975 165.5903,837.8381 Q164.9497,837.9944 164.2466,837.9944 Q161.7466,837.9944 160.4185,836.3538 Q159.106,834.6975 159.106,831.5725 Q159.106,828.4475 160.4185,826.7913 Q161.7466,825.135 164.2466,825.135 Q164.9497,825.135 165.5903,825.2913 Q166.2466,825.4475 166.8091,825.7444 L166.8091,828.4631 Q166.1841,827.885 165.5903,827.6194 Q164.9966,827.3381 164.3716,827.3381 Q163.0278,827.3381 162.3403,828.4163 Q161.6528,829.4788 161.6528,831.5725 Q161.6528,833.6663 162.3403,834.7444 Q163.0278,835.8069 164.3716,835.8069 Q164.9966,835.8069 165.5903,835.5413 Q166.1841,835.26 166.8091,834.6819 L166.8091,837.4006 Z " fill="#000000"/><text fill="#000000" font-family="sans-serif" font-size="14" lengthAdjust="spacing" textLength="206.4795" x="184.3403" y="836.6067">GestorRanquingEstadistiques</text><line style="stroke:#181818;stroke-width:0.5;" x1="8" x2="534.6602" y1="847.76" y2="847.76"/><rect fill="none" height="6" style="stroke:#C82930;stroke-width:1;" width="6" x="15" y="858.4084"/><text fill="#000000" font-family="sans-serif" font-size="14" lengthAdjust="spacing" textLength="236.0518" x="27" y="864.7551">static final String RANQUING_FILE</text><line style="stroke:#181818;stroke-width:0.5;" x1="8" x2="534.6602" y1="872.0569" y2="872.0569"/><ellipse cx="18" cy="885.7053" fill="#84BE84" rx="3" ry="3" style="stroke:#038048;stroke-width:1;"/><text fill="#000000" font-family="sans-serif" font-size="14" lengthAdjust="spacing" textLength="217.4033" x="27" y="889.052">GestorRanquingEstadistiques()</text><ellipse cx="18" cy="902.0022" fill="#84BE84" rx="3" ry="3" style="stroke:#038048;stroke-width:1;"/><text fill="#000000" font-family="sans-serif" font-size="14" lengthAdjust="spacing" textLength="502.6602" x="27" y="905.3489">void eliminarEstadistiquesUsuari(String nomUsuari) throws IOException</text><ellipse cx="18" cy="918.2991" fill="#84BE84" rx="3" ry="3" style="stroke:#038048;stroke-width:1;"/><text fill="#000000" font-family="sans-serif" font-size="14" lengthAdjust="spacing" textLength="387.0986" x="27" y="921.6457">void eliminarFitxerRanquingUsuari(Ranquing ranquing)</text><ellipse cx="18" cy="934.5959" fill="#84BE84" rx="3" ry="3" style="stroke:#038048;stroke-width:1;"/><text fill="#000000" font-family="sans-serif" font-size="14" lengthAdjust="spacing" textLength="294.8066" x="27" y="937.9426">void guardaRanquing(Ranquing ranquing)</text><ellipse cx="18" cy="950.8928" fill="#84BE84" rx="3" ry="3" style="stroke:#038048;stroke-width:1;"/><text fill="#000000" font-family="sans-serif" font-size="14" lengthAdjust="spacing" textLength="202.4189" x="27" y="954.2395">Ranquing carregaRanquing()</text></g><!--class GestorPartida--><g class="entity" data-entity="GestorPartida" data-source-line="61" data-uid="ent0004" id="entity_GestorPartida"><rect fill="#F1F1F1" height="129.4844" rx="2.5" ry="2.5" style="stroke:#181818;stroke-width:0.5;" width="602.6729" x="570.99" y="823.91"/><ellipse cx="819.9822" cy="839.91" fill="#ADD1B2" rx="11" ry="11" style="stroke:#181818;stroke-width:1;"/><path d="M822.9509,845.5506 Q822.3728,845.8475 821.7322,845.9881 Q821.0916,846.1444 820.3884,846.1444 Q817.8884,846.1444 816.5603,844.5038 Q815.2478,842.8475 815.2478,839.7225 Q815.2478,836.5975 816.5603,834.9413 Q817.8884,833.285 820.3884,833.285 Q821.0916,833.285 821.7322,833.4413 Q822.3884,833.5975 822.9509,833.8944 L822.9509,836.6131 Q822.3259,836.035 821.7322,835.7694 Q821.1384,835.4881 820.5134,835.4881 Q819.1697,835.4881 818.4822,836.5663 Q817.7947,837.6288 817.7947,839.7225 Q817.7947,841.8163 818.4822,842.8944 Q819.1697,843.9569 820.5134,843.9569 Q821.1384,843.9569 821.7322,843.6913 Q822.3259,843.41 822.9509,842.8319 L822.9509,845.5506 Z " fill="#000000"/><text fill="#000000" font-family="sans-serif" font-size="14" lengthAdjust="spacing" textLength="96.1885" x="840.4822" y="844.7567">GestorPartida</text><line style="stroke:#181818;stroke-width:0.5;" x1="571.99" x2="1172.6629" y1="855.91" y2="855.91"/><rect fill="none" height="6" style="stroke:#C82930;stroke-width:1;" width="6" x="578.99" y="866.5584"/><text fill="#000000" font-family="sans-serif" font-size="14" lengthAdjust="spacing" textLength="148.3672" x="590.99" y="872.9051">static final String DIR</text><line style="stroke:#181818;stroke-width:0.5;" x1="571.99" x2="1172.6629" y1="880.2069" y2="880.2069"/><ellipse cx="581.99" cy="893.8553" fill="#84BE84" rx="3" ry="3" style="stroke:#038048;stroke-width:1;"/><text fill="#000000" font-family="sans-serif" font-size="14" lengthAdjust="spacing" textLength="488.3115" x="590.99" y="897.202">void savePartida(Partida partida, String filename) throws IOException</text><ellipse cx="581.99" cy="910.1522" fill="#84BE84" rx="3" ry="3" style="stroke:#038048;stroke-width:1;"/><text fill="#000000" font-family="sans-serif" font-size="14" lengthAdjust="spacing" textLength="576.6729" x="590.99" y="913.4989">Partida loadPartida(String fileName) throws IOException, ClassNotFoundException</text><ellipse cx="581.99" cy="926.4491" fill="#84BE84" rx="3" ry="3" style="stroke:#038048;stroke-width:1;"/><text fill="#000000" font-family="sans-serif" font-size="14" lengthAdjust="spacing" textLength="323.2236" x="590.99" y="929.7957">List&lt;String&gt; listPartides() throws IOException</text><ellipse cx="581.99" cy="942.7459" fill="#84BE84" rx="3" ry="3" style="stroke:#038048;stroke-width:1;"/><text fill="#000000" font-family="sans-serif" font-size="14" lengthAdjust="spacing" textLength="414.5518" x="590.99" y="946.0926">boolean deletePartida(String fileName) throws IOException</text></g><!--class GestorUsuari--><g class="entity" data-entity="GestorUsuari" data-source-line="70" data-uid="ent0005" id="entity_GestorUsuari"><rect fill="#F1F1F1" height="162.0781" rx="2.5" ry="2.5" style="stroke:#181818;stroke-width:0.5;" width="519.3496" x="1208.66" y="807.61"/><ellipse cx="1418.4823" cy="823.61" fill="#ADD1B2" rx="11" ry="11" style="stroke:#181818;stroke-width:1;"/><path d="M1421.451,829.2506 Q1420.8729,829.5475 1420.2323,829.6881 Q1419.5916,829.8444 1418.8885,829.8444 Q1416.3885,829.8444 1415.0604,828.2038 Q1413.7479,826.5475 1413.7479,823.4225 Q1413.7479,820.2975 1415.0604,818.6413 Q1416.3885,816.985 1418.8885,816.985 Q1419.5916,816.985 1420.2323,817.1413 Q1420.8885,817.2975 1421.451,817.5944 L1421.451,820.3131 Q1420.826,819.735 1420.2323,819.4694 Q1419.6385,819.1881 1419.0135,819.1881 Q1417.6698,819.1881 1416.9823,820.2663 Q1416.2948,821.3288 1416.2948,823.4225 Q1416.2948,825.5163 1416.9823,826.5944 Q1417.6698,827.6569 1419.0135,827.6569 Q1419.6385,827.6569 1420.2323,827.3913 Q1420.826,827.11 1421.451,826.5319 L1421.451,829.2506 Z " fill="#000000"/><text fill="#000000" font-family="sans-serif" font-size="14" lengthAdjust="spacing" textLength="91.2051" x="1438.9823" y="828.4567">GestorUsuari</text><line style="stroke:#181818;stroke-width:0.5;" x1="1209.66" x2="1727.0096" y1="839.61" y2="839.61"/><rect fill="none" height="6" style="stroke:#C82930;stroke-width:1;" width="6" x="1216.66" y="850.2584"/><text fill="#000000" font-family="sans-serif" font-size="14" lengthAdjust="spacing" textLength="196.6563" x="1228.66" y="856.6051">static final String FILE_PATH</text><line style="stroke:#181818;stroke-width:0.5;" x1="1209.66" x2="1727.0096" y1="863.9069" y2="863.9069"/><ellipse cx="1219.66" cy="877.5553" fill="#84BE84" rx="3" ry="3" style="stroke:#038048;stroke-width:1;"/><text fill="#000000" font-family="sans-serif" font-size="14" lengthAdjust="spacing" textLength="242.751" x="1228.66" y="880.902">GestorUsuari() throws IOException</text><ellipse cx="1219.66" cy="893.8522" fill="#84BE84" rx="3" ry="3" style="stroke:#038048;stroke-width:1;"/><text fill="#000000" font-family="sans-serif" font-size="14" lengthAdjust="spacing" textLength="413.0205" x="1228.66" y="897.1989">Map&lt;String, String&gt; carregarUsuaris() throws IOException</text><ellipse cx="1219.66" cy="910.1491" fill="#84BE84" rx="3" ry="3" style="stroke:#038048;stroke-width:1;"/><text fill="#000000" font-family="sans-serif" font-size="14" lengthAdjust="spacing" textLength="493.3496" x="1228.66" y="913.4957">void guardarUsuaris(Map&lt;String, String&gt; usuaris) throws IOException</text><ellipse cx="1219.66" cy="926.4459" fill="#84BE84" rx="3" ry="3" style="stroke:#038048;stroke-width:1;"/><text fill="#000000" font-family="sans-serif" font-size="14" lengthAdjust="spacing" textLength="406.793" x="1228.66" y="929.7926">boolean canviarNomUsuari(Usuari usuari, String nouNom)</text><ellipse cx="1219.66" cy="942.7428" fill="#84BE84" rx="3" ry="3" style="stroke:#038048;stroke-width:1;"/><text fill="#000000" font-family="sans-serif" font-size="14" lengthAdjust="spacing" textLength="482.1592" x="1228.66" y="946.0895">boolean canviarContrasenya(Usuari usuari, String novaContrasenya)</text><ellipse cx="1219.66" cy="959.0397" fill="#84BE84" rx="3" ry="3" style="stroke:#038048;stroke-width:1;"/><text fill="#000000" font-family="sans-serif" font-size="14" lengthAdjust="spacing" textLength="328.1934" x="1228.66" y="962.3864">void eliminarUsuariDeFitxer(String nomUsuari)</text></g><!--class GestorHistorial--><g class="entity" data-entity="GestorHistorial" data-source-line="81" data-uid="ent0006" id="entity_GestorHistorial"><rect fill="#F1F1F1" height="96.8906" rx="2.5" ry="2.5" style="stroke:#181818;stroke-width:0.5;" width="340.2139" x="1763.22" y="840.21"/><ellipse cx="1876.8538" cy="856.21" fill="#ADD1B2" rx="11" ry="11" style="stroke:#181818;stroke-width:1;"/><path d="M1879.8225,861.8506 Q1879.2444,862.1475 1878.6038,862.2881 Q1877.9632,862.4444 1877.26,862.4444 Q1874.76,862.4444 1873.4319,860.8038 Q1872.1194,859.1475 1872.1194,856.0225 Q1872.1194,852.8975 1873.4319,851.2413 Q1874.76,849.585 1877.26,849.585 Q1877.9632,849.585 1878.6038,849.7413 Q1879.26,849.8975 1879.8225,850.1944 L1879.8225,852.9131 Q1879.1975,852.335 1878.6038,852.0694 Q1878.01,851.7881 1877.385,851.7881 Q1876.0413,851.7881 1875.3538,852.8663 Q1874.6663,853.9288 1874.6663,856.0225 Q1874.6663,858.1163 1875.3538,859.1944 Q1876.0413,860.2569 1877.385,860.2569 Q1878.01,860.2569 1878.6038,859.9913 Q1879.1975,859.71 1879.8225,859.1319 L1879.8225,861.8506 Z " fill="#000000"/><text fill="#000000" font-family="sans-serif" font-size="14" lengthAdjust="spacing" textLength="104.4463" x="1897.3538" y="861.0567">GestorHistorial</text><line style="stroke:#181818;stroke-width:0.5;" x1="1764.22" x2="2102.4339" y1="872.21" y2="872.21"/><line style="stroke:#181818;stroke-width:0.5;" x1="1764.22" x2="2102.4339" y1="880.21" y2="880.21"/><ellipse cx="1774.22" cy="893.8584" fill="#84BE84" rx="3" ry="3" style="stroke:#038048;stroke-width:1;"/><text fill="#000000" font-family="sans-serif" font-size="14" lengthAdjust="spacing" textLength="115.3701" x="1783.22" y="897.2051">GestorHistorial()</text><ellipse cx="1774.22" cy="910.1553" fill="#84BE84" rx="3" ry="3" style="stroke:#038048;stroke-width:1;"/><text fill="#000000" font-family="sans-serif" font-size="14" lengthAdjust="spacing" textLength="314.2139" x="1783.22" y="913.502">void guardarEntradaHistorial(String entrada)</text><ellipse cx="1774.22" cy="926.4522" fill="#84BE84" rx="3" ry="3" style="stroke:#038048;stroke-width:1;"/><text fill="#000000" font-family="sans-serif" font-size="14" lengthAdjust="spacing" textLength="222.5918" x="1783.22" y="929.7989">List&lt;String&gt; carregarHistorial()</text></g><!--class GestorDiccionari--><g class="entity" data-entity="GestorDiccionari" data-source-line="88" data-uid="ent0007" id="entity_GestorDiccionari"><rect fill="#F1F1F1" height="276.1563" rx="2.5" ry="2.5" style="stroke:#181818;stroke-width:0.5;" width="719.9639" x="2138.35" y="750.57"/><ellipse cx="2435.9901" cy="766.57" fill="#ADD1B2" rx="11" ry="11" style="stroke:#181818;stroke-width:1;"/><path d="M2438.9589,772.2106 Q2438.3808,772.5075 2437.7401,772.6481 Q2437.0995,772.8044 2436.3964,772.8044 Q2433.8964,772.8044 2432.5683,771.1637 Q2431.2558,769.5075 2431.2558,766.3825 Q2431.2558,763.2575 2432.5683,761.6012 Q2433.8964,759.945 2436.3964,759.945 Q2437.0995,759.945 2437.7401,760.1012 Q2438.3964,760.2575 2438.9589,760.5544 L2438.9589,763.2731 Q2438.3339,762.695 2437.7401,762.4294 Q2437.1464,762.1481 2436.5214,762.1481 Q2435.1776,762.1481 2434.4901,763.2262 Q2433.8026,764.2887 2433.8026,766.3825 Q2433.8026,768.4762 2434.4901,769.5544 Q2435.1776,770.6169 2436.5214,770.6169 Q2437.1464,770.6169 2437.7401,770.3512 Q2438.3339,770.07 2438.9589,769.4919 L2438.9589,772.2106 Z " fill="#000000"/><text fill="#000000" font-family="sans-serif" font-size="14" lengthAdjust="spacing" textLength="116.1836" x="2456.4901" y="771.4167">GestorDiccionari</text><line style="stroke:#181818;stroke-width:0.5;" x1="2139.35" x2="2857.3139" y1="782.57" y2="782.57"/><rect fill="none" height="6" style="stroke:#C82930;stroke-width:1;" width="6" x="2146.35" y="793.2184"/><text fill="#000000" font-family="sans-serif" font-size="14" lengthAdjust="spacing" textLength="210.1094" x="2158.35" y="799.5651">Map&lt;String,String&gt; dictPaths</text><rect fill="none" height="6" style="stroke:#C82930;stroke-width:1;" width="6" x="2146.35" y="809.5153"/><text fill="#000000" font-family="sans-serif" font-size="14" lengthAdjust="spacing" textLength="222.9541" x="2158.35" y="815.862">Map&lt;String,String&gt; alphaPaths</text><line style="stroke:#181818;stroke-width:0.5;" x1="2139.35" x2="2857.3139" y1="823.1637" y2="823.1637"/><ellipse cx="2149.35" cy="836.8122" fill="#84BE84" rx="3" ry="3" style="stroke:#038048;stroke-width:1;"/><text fill="#000000" font-family="sans-serif" font-size="14" lengthAdjust="spacing" textLength="127.1074" x="2158.35" y="840.1589">GestorDiccionari()</text><ellipse cx="2149.35" cy="853.1091" fill="#84BE84" rx="3" ry="3" style="stroke:#038048;stroke-width:1;"/><text fill="#000000" font-family="sans-serif" font-size="14" lengthAdjust="spacing" textLength="233.0645" x="2158.35" y="856.4557">String getDictPath(String idioma)</text><ellipse cx="2149.35" cy="869.4059" fill="#84BE84" rx="3" ry="3" style="stroke:#038048;stroke-width:1;"/><text fill="#000000" font-family="sans-serif" font-size="14" lengthAdjust="spacing" textLength="255.1719" x="2158.35" y="872.7526">String getAlfabetPath(String idioma)</text><ellipse cx="2149.35" cy="885.7028" fill="#84BE84" rx="3" ry="3" style="stroke:#038048;stroke-width:1;"/><text fill="#000000" font-family="sans-serif" font-size="14" lengthAdjust="spacing" textLength="521.876" x="2158.35" y="889.0495">List&lt;String&gt; carregarDiccionari(String nomDiccionari) throws IOException</text><ellipse cx="2149.35" cy="901.9997" fill="#84BE84" rx="3" ry="3" style="stroke:#038048;stroke-width:1;"/><text fill="#000000" font-family="sans-serif" font-size="14" lengthAdjust="spacing" textLength="628.4004" x="2158.35" y="905.3464">Map&lt;String, Pair&lt;Integer, Integer&gt;&gt; carregarAlfabet(String filepath) throws IOException</text><ellipse cx="2149.35" cy="918.2966" fill="#84BE84" rx="3" ry="3" style="stroke:#038048;stroke-width:1;"/><text fill="#000000" font-family="sans-serif" font-size="14" lengthAdjust="spacing" textLength="551.4004" x="2158.35" y="921.6432">void guardarDiccionari(String nom, List&lt;String&gt; paraules) throws IOException</text><ellipse cx="2149.35" cy="934.5934" fill="#84BE84" rx="3" ry="3" style="stroke:#038048;stroke-width:1;"/><text fill="#000000" font-family="sans-serif" font-size="14" lengthAdjust="spacing" textLength="693.9639" x="2158.35" y="937.9401">void guardarAlfabet(String nom, Map&lt;String, Pair&lt;Integer, Integer&gt;&gt; alfabet) throws IOException</text><ellipse cx="2149.35" cy="950.8903" fill="#84BE84" rx="3" ry="3" style="stroke:#038048;stroke-width:1;"/><text fill="#000000" font-family="sans-serif" font-size="14" lengthAdjust="spacing" textLength="444.1445" x="2158.35" y="954.237">void eliminarDiccionari(String nomDiccionari) throws Exception</text><ellipse cx="2149.35" cy="967.1872" fill="#84BE84" rx="3" ry="3" style="stroke:#038048;stroke-width:1;"/><text fill="#000000" font-family="sans-serif" font-size="14" lengthAdjust="spacing" textLength="233.9189" x="2158.35" y="970.5339">List&lt;String&gt; getNomesAlfabets()</text><ellipse cx="2149.35" cy="983.4841" fill="#84BE84" rx="3" ry="3" style="stroke:#038048;stroke-width:1;"/><text fill="#000000" font-family="sans-serif" font-size="14" lengthAdjust="spacing" textLength="483.0137" x="2158.35" y="986.8307">Map&lt;String, Pair&lt;Integer, Integer&gt;&gt; importarAlfabet(String idioma)</text><ellipse cx="2149.35" cy="999.7809" fill="#84BE84" rx="3" ry="3" style="stroke:#038048;stroke-width:1;"/><text fill="#000000" font-family="sans-serif" font-size="14" lengthAdjust="spacing" textLength="388.9717" x="2158.35" y="1003.1276">List&lt;String&gt; importarParaulesDiccionari(String idioma)</text><ellipse cx="2149.35" cy="1016.0778" fill="#84BE84" rx="3" ry="3" style="stroke:#038048;stroke-width:1;"/><text fill="#000000" font-family="sans-serif" font-size="14" lengthAdjust="spacing" textLength="237.665" x="2158.35" y="1019.4245">List&lt;String&gt; getNomDiccionaris()</text></g><!--link ControladorPersistencia to GestorDiccionari--><g class="link" data-entity-1="ControladorPersistencia" data-entity-2="GestorDiccionari" data-source-line="105" data-uid="lnk8" id="link_ControladorPersistencia_GestorDiccionari"><path codeLine="105" d="M1828.57,537.9 C1962.44,607.81 2106.3615,682.9626 2229.9315,747.4926" fill="none" id="ControladorPersistencia-to-GestorDiccionari" style="stroke:#181818;stroke-width:1;"/><polygon fill="#181818" points="2235.25,750.27,2229.1239,742.5583,2230.8179,747.9555,2225.4207,749.6496,2235.25,750.27" style="stroke:#181818;stroke-width:1;"/></g><!--link ControladorPersistencia to GestorPartida--><g class="link" data-entity-1="ControladorPersistencia" data-entity-2="GestorPartida" data-source-line="106" data-uid="lnk9" id="link_ControladorPersistencia_GestorPartida"><path codeLine="106" d="M1107.89,675.07 C1045.25,731.6 990.9247,780.6306 947.7447,819.5906" fill="none" id="ControladorPersistencia-to-GestorPartida" style="stroke:#181818;stroke-width:1;"/><polygon fill="#181818" points="943.29,823.61,952.6517,820.5508,947.0023,820.2605,947.2925,814.6111,943.29,823.61" style="stroke:#181818;stroke-width:1;"/></g><!--link ControladorPersistencia to GestorUsuari--><g class="link" data-entity-1="ControladorPersistencia" data-entity-2="GestorUsuari" data-source-line="107" data-uid="lnk10" id="link_ControladorPersistencia_GestorUsuari"><path codeLine="107" d="M1468.33,690.81 C1468.33,733.89 1468.33,768.32 1468.33,801.19" fill="none" id="ControladorPersistencia-to-GestorUsuari" style="stroke:#181818;stroke-width:1;"/><polygon fill="#181818" points="1468.33,807.19,1472.33,798.19,1468.33,802.19,1464.33,798.19,1468.33,807.19" style="stroke:#181818;stroke-width:1;"/></g><!--link ControladorPersistencia to GestorRanquingEstadistiques--><g class="link" data-entity-1="ControladorPersistencia" data-entity-2="GestorRanquingEstadistiques" data-source-line="108" data-uid="lnk11" id="link_ControladorPersistencia_GestorRanquingEstadistiques"><path codeLine="108" d="M1108.08,503.67 C938.97,576.9 735.08,666.63 553.33,750.57 C508.85,771.12 466.1845,791.5333 422.5645,812.7733" fill="none" id="ControladorPersistencia-to-GestorRanquingEstadistiques" style="stroke:#181818;stroke-width:1;"/><polygon fill="#181818" points="417.17,815.4,427.0129,815.0562,421.6654,813.211,423.5105,807.8636,417.17,815.4" style="stroke:#181818;stroke-width:1;"/></g><!--link ControladorPersistencia to GestorHistorial--><g class="link" data-entity-1="ControladorPersistencia" data-entity-2="GestorHistorial" data-source-line="109" data-uid="lnk12" id="link_ControladorPersistencia_GestorHistorial"><path codeLine="109" d="M1763.15,690.81 C1813.9,749.51 1856.4461,798.7209 1887.9561,835.1709" fill="none" id="ControladorPersistencia-to-GestorHistorial" style="stroke:#181818;stroke-width:1;"/><polygon fill="#181818" points="1891.88,839.71,1889.0202,830.2855,1888.6101,835.9274,1882.9681,835.5173,1891.88,839.71" style="stroke:#181818;stroke-width:1;"/></g><!--SRC=[xLVTJjim5BxFK_XkYTQ-m8IGAbeW4ikw0jVJ8J6jfTGEjjCn8TvbBx2duCNcDiU9tIPfcCJ41LoK9FxEt-VZSuxJ79GYPu9hANB8X9nJgPZIbASCo5D0pD-OA0sQfUIUSSZ9jPQCByaqNhIjTgcAa-kRIN8swz6uc2JVR-FauiTvV6Ln5rHf8QSiJPdW81bPxdtmS7EGccM087pp4BUgRBHKBzxw0lX3QPoP6GSpupnxAAb2UEkQ9tt9jh_CXBJqtuCTx7CNEs64wqXB5ubBgcDkC3obOVIb2rOP-qJ6Or95gCmZ6lWAnKb5zmXfFoKfI4cNW7IeC29w9SLFHU9liyUK5jemZU8RmJAoDB2iWRUfBAkr7artGkGKk37EDmna8jQLlX1tgD9WDH8kIWE9seLtF82Y_1TqYc_0GKLkE3HdQvE66C-KdZFzI6LOIw9ZaKDhatwAC0BvFTnHxR1yPRRYP9_UHiZHtNpiuSfbU0vCdiHSqoML8u8FfusLIUMCDN7FSbg0NWtSqrOVHtuy1KWeSwe6gjnpQATlI438QeyLpojpD4o2K8NcL7saXjXYwq98VU0hovXOrydYcRCISoJZa3XVsCkqePam860d4qCtGwlQHvsSt7cWO4EnB8QsM1RL__giR5E6mvhsC6z5Sm6PLUT89ntI8tAsRJU9qEUYv5blUBbviK640-f8HdEgwIkSSSXgohRF5cRmR5itCgXHLZkjlaTzXxuHSdTdrq5U_jZsmiZYvNVLM_Oyi1dZjHmib8S5gaMmAcQsSw6aVIKI7wB3g2sc6rmlOAorH1Gy1q6GxYQBlgxwD7WMG8izoiBedsaxKiRU5vFsv1sRp3uEVNieppwTE2tqiRbDm1_poSsbduMO00ExziUezRfHQs-RcWBzv6s2MrtVhcxldq7dDc8JnzaOgobZgSbblLBT4CYB5LGOBondFh1EekkcwKzHR_kSqU1mbkc6VWof_sD8VQl1xzrEkaU7rEUWwtex7fyUd801O7lFFux42_znOFjL_xXSNJR-0W00]--></g></svg>